
<svg x="0px" y="0px"
	 width="155px" height="42px" viewBox="0 0 680.31 340.16" enable-background="new 0 0 680.31 340.16" xml:space="preserve">
<g>
	<g>
		<path fill="#09FF8C" d="M305.284,182.208l2.68-4.075c0.561-0.853,0.561-2.235,0.001-3.088l-9.915-15.091
			c-0.187-0.284-0.481-0.279-0.657,0.013l-3.549,5.878c-0.176,0.291-0.167,0.758,0.02,1.042l10.067,15.321
			C304.304,182.776,304.91,182.777,305.284,182.208z"/>
		<path fill="#09FF8C" d="M298.837,158.213c-0.34,0-0.464,0.23-0.278,0.515l3.072,4.673c0.374,0.569,1.228,1.029,1.909,1.029h7.188
			c0.34,0,0.616,0.254,0.616,0.568c0,0.314-0.276,0.568-0.616,0.568h-5.826c-1.021,0-1.393,0.691-0.833,1.544l2.695,4.101
			c1.588,2.416,4.156,2.428,5.736,0.027l2.86-4.348c0.187-0.284,0.196-0.751,0.02-1.042l-4.291-7.107
			c-0.176-0.291-0.594-0.527-0.934-0.527H298.837z"/>
	</g>
	<g>
		<g>
			<path fill="#09FF8C" d="M333.397,174.986c0,2.518-1.51,4.639-4.669,4.639h-2.197v2.393c0,0.17-0.138,0.308-0.308,0.308h-2.436
				c-0.17,0-0.308-0.138-0.308-0.308v-11.286c0-0.17,0.138-0.308,0.308-0.308h4.941C331.887,170.424,333.397,172.59,333.397,174.986
				z M326.531,173.509v3.031c0,0.17,0.138,0.308,0.308,0.308h1.721c1.282,0,1.755-0.793,1.755-1.846
				c0-0.946-0.473-1.801-1.755-1.801h-1.721C326.669,173.201,326.531,173.339,326.531,173.509z"/>
			<path fill="#09FF8C" d="M356.027,182.326h-2.436c-0.17,0-0.308-0.138-0.308-0.308v-11.286c0-0.17,0.138-0.308,0.308-0.308h2.436
				c0.17,0,0.308,0.138,0.308,0.308v11.286C356.335,182.188,356.197,182.326,356.027,182.326z"/>
			<path fill="#09FF8C" d="M385.419,175.093h-4.389c-0.17,0-0.308-0.138-0.308-0.308v-1.093c0-0.17,0.138-0.308,0.308-0.308h5.468
				c0.17,0,0.232-0.115,0.139-0.257l-1.607-2.446c-0.093-0.142-0.307-0.257-0.477-0.257h-6.575c-0.17,0-0.308,0.138-0.308,0.308
				v11.286c0,0.17,0.138,0.308,0.308,0.308h8.524c0.17,0,0.308-0.138,0.308-0.308v-2.329c0-0.17-0.138-0.308-0.308-0.308h-5.472
				c-0.17,0-0.308-0.138-0.308-0.308v-0.91c0-0.17,0.138-0.308,0.308-0.308h4.389c0.17,0,0.308-0.138,0.308-0.308v-2.146
				C385.727,175.231,385.589,175.093,385.419,175.093z"/>
			<path fill="#09FF8C" d="M364.729,173.384h2.243c1.816,0,2.777,1.205,2.777,2.991s-0.962,3.006-2.777,3.006h-2.243
				c0-0.01-1.545-0.012-2.436-0.013c-0.34,0-0.616,0.275-0.616,0.616v2.035c0,0.17,0.138,0.308,0.308,0.308h5.216
				c3.723,0,5.631-2.701,5.631-5.951c0-3.235-1.907-5.951-5.631-5.951h-5.236c-0.17,0-0.232,0.115-0.139,0.257l1.438,2.189
				c0.187,0.284,0.59,0.515,0.901,0.514L364.729,173.384z"/>
			<path fill="#09FF8C" d="M343.73,173.201c1.221,0,1.679,0.687,1.679,1.602c0,0.824-0.458,1.572-1.679,1.572h-1.993
				c-0.34,0-0.768-0.23-0.955-0.514l-2.358-3.578c-0.187-0.284-0.339-0.238-0.339,0.102v9.633c0,0.17,0.138,0.308,0.308,0.308h2.421
				c0.17,0,0.308-0.138,0.308-0.308v-2.573c0-0.17,0.138-0.308,0.308-0.308h0.94c0.17,0,0.388,0.113,0.486,0.251l1.902,2.686
				c0.098,0.139,0.316,0.251,0.486,0.251h3.031c0.17,0,0.228-0.112,0.129-0.25l-2.399-3.351c1.602-0.733,2.35-2.289,2.35-3.952
				c0-2.365-1.404-4.349-4.455-4.349h-5.07c-0.17,0-0.232,0.115-0.139,0.257l1.317,2.005c0.187,0.284,0.614,0.515,0.954,0.515
				H343.73z"/>
		</g>
	</g>
</g>
</svg>
